<svg xmlns="http://www.w3.org/2000/svg" viewBox="0 0 640 320" fill="none"><defs><linearGradient id="tlo" x1="18" y1="18" x2="612" y2="315" gradientUnits="userSpaceOnUse"><stop stop-color="#10221D"/><stop offset=".58" stop-color="#0B1414"/><stop offset="1" stop-color="#070B0E"/></linearGradient><linearGradient id="panel" x1="92" y1="35" x2="512" y2="269" gradientUnits="userSpaceOnUse"><stop stop-color="#20332D"/><stop offset="1" stop-color="#10191A"/></linearGradient><linearGradient id="akcent" x1="334" y1="133" x2="461" y2="221" gradientUnits="userSpaceOnUse"><stop stop-color="#8CFFD0"/><stop offset="1" stop-color="#21A975"/></linearGradient><filter id="blask" x="-50%" y="-50%" width="200%" height="200%"><feGaussianBlur stdDeviation="24"/></filter><filter id="cien" x="-20%" y="-30%" width="140%" height="180%"><feDropShadow dx="0" dy="18" stdDeviation="17" flood-color="#000" flood-opacity=".55"/></filter></defs><rect width="640" height="320" fill="url(#tlo)"/><circle cx="529" cy="86" r="124" fill="#45C995" fill-opacity=".2" filter="url(#blask)"/><circle cx="75" cy="265" r="92" fill="#2A9B77" fill-opacity=".12" filter="url(#blask)"/><g opacity=".12" stroke="#B0FFDB"><path d="M0 64H640M0 128H640M0 192H640M0 256H640"/><path d="M64 0V320M128 0V320M192 0V320M256 0V320M320 0V320M384 0V320M448 0V320M512 0V320M576 0V320"/></g><g filter="url(#cien)"><rect x="82" y="37" width="459" height="234" rx="18" fill="url(#panel)" stroke="#A0F6CA" stroke-opacity=".25"/><path d="M82 82H541" stroke="#CCFFE3" stroke-opacity=".16"/><circle cx="112" cy="60" r="5" fill="#62E8AA"/><circle cx="130" cy="60" r="5" fill="#62E8AA" fill-opacity=".38"/><circle cx="148" cy="60" r="5" fill="#62E8AA" fill-opacity=".16"/></g><rect x="108" y="105" width="183" height="137" rx="10" fill="#0B1416" stroke="#B6FFDA" stroke-opacity=".12"/><rect x="126" y="124" width="101" height="10" rx="5" fill="#E2FFF0" fill-opacity=".72"/><rect x="126" y="149" width="142" height="16" rx="5" fill="#1B2D2B"/><rect x="126" y="178" width="142" height="16" rx="5" fill="#1B2D2B"/><rect x="126" y="207" width="82" height="15" rx="7.5" fill="#2BC18B" fill-opacity=".8"/><g><path d="M313 144H342" stroke="#61E6AA" stroke-width="2"/><path d="M333 135L343 144L333 153" stroke="#61E6AA" stroke-width="2"/><rect x="353" y="109" width="147" height="128" rx="12" fill="#0A1514" stroke="#8EF8C2" stroke-opacity=".22"/><rect x="370" y="127" width="48" height="12" rx="6" fill="#6DF1B1" fill-opacity=".8"/><rect x="370" y="153" width="111" height="8" rx="4" fill="#B4FFE0" fill-opacity=".22"/><rect x="370" y="170" width="91" height="8" rx="4" fill="#B4FFE0" fill-opacity=".14"/><path d="M372 204L397 218L429 181L447 195L479 161" stroke="url(#akcent)" stroke-width="5" stroke-linecap="round" stroke-linejoin="round"/><circle cx="479" cy="161" r="5" fill="#B5FFDB"/></g><path d="M291 173C308 173 315 173 333 173" stroke="#3DD094" stroke-opacity=".42" stroke-width="2" stroke-dasharray="4 5"/></svg>
