<svg xmlns="http://www.w3.org/2000/svg" viewBox="0 0 640 320" fill="none"><defs><linearGradient id="tlo" x1="22" y1="18" x2="600" y2="322" gradientUnits="userSpaceOnUse"><stop stop-color="#10202A"/><stop offset=".55" stop-color="#09131B"/><stop offset="1" stop-color="#060A10"/></linearGradient><linearGradient id="obudowa" x1="245" y1="84" x2="399" y2="245" gradientUnits="userSpaceOnUse"><stop stop-color="#2A4854"/><stop offset=".48" stop-color="#15242C"/><stop offset="1" stop-color="#0C121A"/></linearGradient><radialGradient id="rdzen" cx="0" cy="0" r="1" gradientTransform="translate(322 154) rotate(90) scale(68)" gradientUnits="userSpaceOnUse"><stop stop-color="#C5F8FF"/><stop offset=".22" stop-color="#54D4F4"/><stop offset=".58" stop-color="#1E85A4"/><stop offset="1" stop-color="#14313D"/></radialGradient><filter id="blask" x="-70%" y="-70%" width="240%" height="240%"><feGaussianBlur stdDeviation="22"/></filter><filter id="cien" x="-40%" y="-30%" width="180%" height="180%"><feDropShadow dx="0" dy="19" stdDeviation="18" flood-color="#000" flood-opacity=".72"/></filter></defs><rect width="640" height="320" fill="url(#tlo)"/><circle cx="320" cy="159" r="126" fill="#22B4DD" fill-opacity=".13" filter="url(#blask)"/><ellipse cx="320" cy="279" rx="157" ry="25" fill="#020508" fill-opacity=".74"/><g opacity=".15" stroke="#63DDF8"><circle cx="320" cy="160" r="121"/><circle cx="320" cy="160" r="92"/><path d="M320 28V292M188 160H452"/><path d="M227 67L413 253M413 67L227 253"/></g><g filter="url(#cien)"><path d="M279 63H361L395 101V230L361 263H279L245 230V101L279 63Z" fill="url(#obudowa)" stroke="#8AEEFF" stroke-opacity=".34"/><path d="M279 63H361L395 101H245L279 63Z" fill="#3B6472" fill-opacity=".8"/><path d="M245 230H395L361 263H279L245 230Z" fill="#0A1118"/></g><circle cx="320" cy="157" r="60" fill="#2CC4E8" fill-opacity=".22" filter="url(#blask)"/><circle cx="320" cy="157" r="47" fill="url(#rdzen)" stroke="#C3F8FF" stroke-opacity=".7"/><circle cx="320" cy="157" r="25" fill="#D7FAFF" fill-opacity=".3"/><circle cx="320" cy="157" r="9" fill="#E2FDFF"/><path d="M271 111L248 88M369 111L392 88M271 203L248 226M369 203L392 226" stroke="#71E6FF" stroke-opacity=".72" stroke-width="3" stroke-linecap="round"/><circle cx="238" cy="78" r="4" fill="#76E7FF"/><circle cx="402" cy="78" r="4" fill="#76E7FF"/><circle cx="238" cy="236" r="4" fill="#76E7FF"/><circle cx="402" cy="236" r="4" fill="#76E7FF"/><path d="M293 239H347" stroke="#61DDF8" stroke-opacity=".45" stroke-width="3" stroke-linecap="round"/></svg>
