<svg xmlns="http://www.w3.org/2000/svg" viewBox="0 0 640 320" fill="none"><defs><linearGradient id="tlo" x1="38" y1="15" x2="584" y2="324" gradientUnits="userSpaceOnUse"><stop stop-color="#152334"/><stop offset=".48" stop-color="#0A1119"/><stop offset="1" stop-color="#080B11"/></linearGradient><linearGradient id="monitor" x1="168" y1="50" x2="461" y2="218" gradientUnits="userSpaceOnUse"><stop stop-color="#264A60"/><stop offset="1" stop-color="#0D141C"/></linearGradient><radialGradient id="swiatlo" cx="0" cy="0" r="1" gradientTransform="translate(469 66) rotate(133) scale(170 192)" gradientUnits="userSpaceOnUse"><stop stop-color="#FF8247" stop-opacity=".5"/><stop offset="1" stop-color="#FF8247" stop-opacity="0"/></radialGradient><filter id="cien" x="-20%" y="-30%" width="140%" height="190%"><feDropShadow dx="0" dy="18" stdDeviation="16" flood-color="#000" flood-opacity=".66"/></filter><filter id="blask" x="-50%" y="-70%" width="200%" height="240%"><feGaussianBlur stdDeviation="20"/></filter></defs><rect width="640" height="320" fill="url(#tlo)"/><rect width="640" height="320" fill="url(#swiatlo)"/><ellipse cx="172" cy="286" rx="181" ry="24" fill="#000" fill-opacity=".48"/><path d="M0 241L640 209V320H0Z" fill="#101925"/><g opacity=".14" stroke="#7CDCF6"><path d="M0 51H640M0 102H640M0 153H640M0 204H640"/><path d="M80 0V320M160 0V320M240 0V320M320 0V320M400 0V320M480 0V320M560 0V320"/></g><g filter="url(#cien)"><path d="M149 48H468L490 215H131L149 48Z" fill="#070B10" stroke="#91E9FF" stroke-opacity=".28"/><path d="M160 60H457L474 199H145L160 60Z" fill="url(#monitor)"/><path d="M131 215H490L474 236H147L131 215Z" fill="#1C2C38"/></g><path d="M175 83H286" stroke="#D7F8FF" stroke-opacity=".75" stroke-width="8" stroke-linecap="round"/><path d="M175 103H254" stroke="#A6D9E6" stroke-opacity=".35" stroke-width="5" stroke-linecap="round"/><rect x="170" y="128" width="106" height="49" rx="7" fill="#0C1A25" stroke="#7FDBF5" stroke-opacity=".2"/><rect x="286" y="128" width="73" height="49" rx="7" fill="#0C1A25" stroke="#7FDBF5" stroke-opacity=".2"/><rect x="369" y="128" width="81" height="49" rx="7" fill="#0C1A25" stroke="#7FDBF5" stroke-opacity=".2"/><path d="M183 162L205 143L224 157L251 136L264 165" stroke="#55CDED" stroke-width="3" stroke-linecap="round" stroke-linejoin="round"/><path d="M299 158H345M299 166H332" stroke="#55CDED" stroke-opacity=".5" stroke-width="4" stroke-linecap="round"/><circle cx="405" cy="151" r="12" fill="#FF8247" fill-opacity=".82"/><circle cx="430" cy="151" r="12" fill="#59CDEE" fill-opacity=".75"/><circle cx="417" cy="166" r="12" fill="#9BE7F9" fill-opacity=".42"/><path d="M251 237L255 274H364L369 237" fill="#101A21"/><path d="M218 275H403" stroke="#59CDEE" stroke-opacity=".35" stroke-width="5" stroke-linecap="round"/><ellipse cx="470" cy="65" rx="52" ry="29" fill="#FF8247" fill-opacity=".24" filter="url(#blask)"/></svg>
