<svg xmlns="http://www.w3.org/2000/svg" viewBox="0 0 640 320" fill="none"><defs><linearGradient id="tlo" x1="38" y1="20" x2="590" y2="313" gradientUnits="userSpaceOnUse"><stop stop-color="#191126"/><stop offset=".55" stop-color="#0D111A"/><stop offset="1" stop-color="#070A10"/></linearGradient><radialGradient id="swiatlo" cx="0" cy="0" r="1" gradientTransform="translate(322 136) rotate(90) scale(128)" gradientUnits="userSpaceOnUse"><stop stop-color="#B18AFF" stop-opacity=".32"/><stop offset="1" stop-color="#875DDA" stop-opacity="0"/></radialGradient><linearGradient id="szyba" x1="209" y1="62" x2="431" y2="237" gradientUnits="userSpaceOnUse"><stop stop-color="#27263B"/><stop offset="1" stop-color="#10131C"/></linearGradient><filter id="cien" x="-30%" y="-30%" width="160%" height="180%"><feDropShadow dx="0" dy="17" stdDeviation="16" flood-color="#000" flood-opacity=".68"/></filter><filter id="mgla" x="-60%" y="-60%" width="220%" height="220%"><feGaussianBlur stdDeviation="22"/></filter></defs><rect width="640" height="320" fill="url(#tlo)"/><rect width="640" height="320" fill="url(#swiatlo)"/><g opacity=".13" stroke="#C9B7FF"><path d="M0 64H640M0 128H640M0 192H640M0 256H640"/><path d="M64 0V320M128 0V320M192 0V320M256 0V320M320 0V320M384 0V320M448 0V320M512 0V320M576 0V320"/></g><ellipse cx="320" cy="274" rx="151" ry="22" fill="#020306" fill-opacity=".72"/><g filter="url(#cien)"><path d="M235 50H405L449 94V227L405 270H235L191 227V94L235 50Z" fill="#090C13" stroke="#BBA4FF" stroke-opacity=".32"/><path d="M247 68H393L429 103V218L393 252H247L211 218V103L247 68Z" fill="url(#szyba)" stroke="#E0D6FF" stroke-opacity=".12"/></g><path d="M271 128V111C271 84 293 66 320 66C347 66 369 84 369 111V128" stroke="#C9B7FF" stroke-width="13" stroke-linecap="round"/><rect x="250" y="122" width="140" height="105" rx="16" fill="#111521" stroke="#C9B7FF" stroke-opacity=".58" stroke-width="3"/><circle cx="320" cy="168" r="25" fill="#8E6EE5" fill-opacity=".24" filter="url(#mgla)"/><circle cx="320" cy="168" r="13" fill="#D9D0FF" fill-opacity=".7"/><path d="M288 198H352" stroke="#BBA4FF" stroke-opacity=".62" stroke-width="5" stroke-linecap="round"/><path d="M218 108L185 84M422 108L455 84M218 214L185 238M422 214L455 238" stroke="#9A7AE8" stroke-opacity=".6" stroke-width="3" stroke-linecap="round"/><circle cx="176" cy="76" r="4" fill="#C4B5FD"/><circle cx="464" cy="76" r="4" fill="#C4B5FD"/><circle cx="176" cy="246" r="4" fill="#C4B5FD"/><circle cx="464" cy="246" r="4" fill="#C4B5FD"/></svg>
