<svg xmlns="http://www.w3.org/2000/svg" viewBox="0 0 640 320" fill="none"><defs><linearGradient id="tlo" x1="28" y1="16" x2="596" y2="330" gradientUnits="userSpaceOnUse"><stop stop-color="#162923"/><stop offset=".54" stop-color="#0A1315"/><stop offset="1" stop-color="#060A0D"/></linearGradient><linearGradient id="ekran" x1="173" y1="55" x2="463" y2="230" gradientUnits="userSpaceOnUse"><stop stop-color="#263F36"/><stop offset="1" stop-color="#0A1012"/></linearGradient><linearGradient id="kadr" x1="271" y1="64" x2="442" y2="163" gradientUnits="userSpaceOnUse"><stop stop-color="#85F1BD" stop-opacity=".8"/><stop offset=".46" stop-color="#278D68" stop-opacity=".52"/><stop offset="1" stop-color="#0A1717" stop-opacity=".2"/></linearGradient><linearGradient id="sciezka" x1="175" y1="0" x2="451" y2="0" gradientUnits="userSpaceOnUse"><stop stop-color="#2DCB91"/><stop offset="1" stop-color="#B2FFD8"/></linearGradient><filter id="blask" x="-40%" y="-60%" width="180%" height="220%"><feGaussianBlur stdDeviation="20"/></filter><filter id="cien" x="-20%" y="-30%" width="140%" height="180%"><feDropShadow dx="0" dy="16" stdDeviation="15" flood-color="#000" flood-opacity=".6"/></filter></defs><rect width="640" height="320" fill="url(#tlo)"/><ellipse cx="474" cy="38" rx="136" ry="92" fill="#45C995" fill-opacity=".2" filter="url(#blask)"/><path d="M0 252C119 208 191 332 327 279C438 236 509 185 640 217V320H0Z" fill="#0B2420" fill-opacity=".55"/><g opacity=".16" stroke="#94E9C2"><path d="M0 58H640M0 118H640M0 178H640M0 238H640"/><path d="M70 0V320M170 0V320M270 0V320M370 0V320M470 0V320M570 0V320"/></g><g filter="url(#cien)"><path d="M137 42L477 62L501 248L160 230Z" fill="#05090B" stroke="#6EF0B1" stroke-opacity=".34"/><path d="M151 55L462 72L480 218L168 205Z" fill="url(#ekran)"/><path d="M168 205L480 218L501 248L160 230Z" fill="#0E1819"/><path d="M160 230L501 248L479 266L184 249Z" fill="#192728"/></g><path d="M187 73L443 87L452 157L196 145Z" fill="url(#kadr)"/><path d="M187 73L443 87L452 157L196 145Z" stroke="#B9FFDB" stroke-opacity=".22"/><path d="M205 132L252 89L292 139L334 98L424 151L196 145Z" fill="#0D2C28" fill-opacity=".8"/><circle cx="352" cy="112" r="30" fill="#B0FFD7" fill-opacity=".13"/><path d="M344 100L370 115L344 130Z" fill="#D8FFE8" fill-opacity=".9"/><g opacity=".7"><path d="M183 174L459 187" stroke="#A9D7C0" stroke-opacity=".35"/><path d="M196 181L196 202M226 183L226 204M256 185L256 206M286 186L286 207M316 188L316 209M346 190L346 210M376 191L376 212M406 193L406 214M436 195L436 216" stroke="#A9D7C0" stroke-opacity=".3"/><path d="M204 187L259 190V199L204 196Z" fill="url(#sciezka)"/><path d="M264 190L324 193V202L264 199Z" fill="#2B87A3"/><path d="M329 194L400 198V207L329 203Z" fill="#D69254"/><path d="M405 198L451 201V210L405 207Z" fill="#45C995"/><path d="M314 164L316 214" stroke="#D6FFE8" stroke-width="3"/></g><circle cx="178" cy="44" r="3" fill="#79F3B8"/><circle cx="190" cy="45" r="3" fill="#79F3B8" fill-opacity=".35"/></svg>
