<svg xmlns="http://www.w3.org/2000/svg" viewBox="0 0 640 320"><defs><linearGradient id="a" x2="1" y2="1"><stop stop-color="#0a241b"/><stop offset="1" stop-color="#111923"/></linearGradient></defs><rect width="640" height="320" fill="url(#a)"/><g stroke="#45c995" fill="none" opacity=".55"><path d="M0 64h640M0 128h640M0 192h640M0 256h640M80 0v320M160 0v320M240 0v320M320 0v320M400 0v320M480 0v320M560 0v320" opacity=".15"/><rect x="90" y="58" width="460" height="205" rx="14"/><path d="M115 213h410M190 213v50M350 213v50M460 213v50"/><path d="m275 105 88 51-88 51z" fill="#45c995" opacity=".35"/></g><text x="112" y="96" fill="#f5f7fa" font-family="Segoe UI,sans-serif" font-size="24" font-weight="700">VIDEDIT STUDIO</text></svg>
